<?xml version="1.0" encoding="UTF-8" standalone="no"?>
<!DOCTYPE svg PUBLIC "-//W3C//DTD SVG 1.1//EN"
 "http://www.w3.org/Graphics/SVG/1.1/DTD/svg11.dtd">
<!-- Generated by graphviz version 10.0.1 (20240210.2158)
 -->
<!-- Pages: 1 -->
<svg width="389pt" height="260pt"
 viewBox="0.00 0.00 388.57 260.00" xmlns="http://www.w3.org/2000/svg" xmlns:xlink="http://www.w3.org/1999/xlink">
<g id="graph0" class="graph" transform="scale(1 1) rotate(0) translate(4 256)">
<polygon fill="white" stroke="none" points="-4,4 -4,-256 384.57,-256 384.57,4 -4,4"/>
<!-- struct { F uintptr; R *ref_dump_test.MapBase } -->
<g id="node1" class="node">
<title>struct { F uintptr; R *ref_dump_test.MapBase }</title>
<ellipse fill="none" stroke="black" cx="190.28" cy="-90" rx="190.28" ry="18"/>
<text text-anchor="middle" x="190.28" y="-84.58" font-family="Times New Roman,serif" font-size="14.00">struct { F uintptr; R *ref_dump_test.MapBase }</text>
</g>
<!-- ref_dump_test.MapBase -->
<g id="node2" class="node">
<title>ref_dump_test.MapBase</title>
<ellipse fill="none" stroke="black" cx="190.28" cy="-18" rx="102.46" ry="18"/>
<text text-anchor="middle" x="190.28" y="-12.57" font-family="Times New Roman,serif" font-size="14.00">ref_dump_test.MapBase</text>
</g>
<!-- struct { F uintptr; R *ref_dump_test.MapBase }&#45;&gt;ref_dump_test.MapBase -->
<g id="edge1" class="edge">
<title>struct { F uintptr; R *ref_dump_test.MapBase }&#45;&gt;ref_dump_test.MapBase</title>
<path fill="none" stroke="#3a9aa1" d="M190.28,-71.7C190.28,-64.41 190.28,-55.73 190.28,-47.54"/>
<polygon fill="#3a9aa1" stroke="#3a9aa1" points="193.78,-47.62 190.28,-37.62 186.78,-47.62 193.78,-47.62"/>
</g>
<!-- []func() -->
<g id="node3" class="node">
<title>[]func()</title>
<ellipse fill="none" stroke="black" cx="190.28" cy="-162" rx="39.09" ry="18"/>
<text text-anchor="middle" x="190.28" y="-156.57" font-family="Times New Roman,serif" font-size="14.00">[]func()</text>
</g>
<!-- []func()&#45;&gt;struct { F uintptr; R *ref_dump_test.MapBase } -->
<g id="edge2" class="edge">
<title>[]func()&#45;&gt;struct { F uintptr; R *ref_dump_test.MapBase }</title>
<path fill="none" stroke="#2df7f6" d="M190.28,-143.7C190.28,-136.41 190.28,-127.73 190.28,-119.54"/>
<polygon fill="#2df7f6" stroke="#2df7f6" points="193.78,-119.62 190.28,-109.62 186.78,-119.62 193.78,-119.62"/>
</g>
<!-- ref_dump_test.Info -->
<g id="node4" class="node">
<title>ref_dump_test.Info</title>
<ellipse fill="red" stroke="#57c87e" cx="190.28" cy="-234" rx="83" ry="18"/>
<text text-anchor="middle" x="190.28" y="-228.57" font-family="Times New Roman,serif" font-size="14.00">ref_dump_test.Info</text>
</g>
<!-- ref_dump_test.Info&#45;&gt;[]func() -->
<g id="edge3" class="edge">
<title>ref_dump_test.Info&#45;&gt;[]func()</title>
<path fill="none" stroke="black" d="M190.28,-215.7C190.28,-208.41 190.28,-199.73 190.28,-191.54"/>
<polygon fill="black" stroke="black" points="193.78,-191.62 190.28,-181.62 186.78,-191.62 193.78,-191.62"/>
</g>
</g>
</svg>
