<?xml version="1.0" encoding="UTF-8" standalone="no"?>
<!DOCTYPE svg PUBLIC "-//W3C//DTD SVG 1.1//EN"
 "http://www.w3.org/Graphics/SVG/1.1/DTD/svg11.dtd">
<!-- Generated by graphviz version 10.0.1 (20240210.2158)
 -->
<!-- Pages: 1 -->
<svg width="412pt" height="352pt"
 viewBox="0.00 0.00 412.47 351.86" xmlns="http://www.w3.org/2000/svg" xmlns:xlink="http://www.w3.org/1999/xlink">
<g id="graph0" class="graph" transform="scale(1 1) rotate(0) translate(4 347.86)">
<polygon fill="white" stroke="none" points="-4,4 -4,-347.86 408.47,-347.86 408.47,4 -4,4"/>
<!-- struct { F uintptr; R *ref_dump_test.MapBase }
(&lt;autogenerated&gt;:1) -->
<g id="node1" class="node">
<title>struct { F uintptr; R *ref_dump_test.MapBase }
(&lt;autogenerated&gt;:1)</title>
<ellipse fill="none" stroke="black" cx="202.23" cy="-99.93" rx="202.23" ry="27.93"/>
<text text-anchor="middle" x="202.23" y="-102.38" font-family="Times New Roman,serif" font-size="14.00">struct { F uintptr; R *ref_dump_test.MapBase }</text>
<text text-anchor="middle" x="202.23" y="-86.63" font-family="Times New Roman,serif" font-size="14.00">(&lt;autogenerated&gt;:1)</text>
</g>
<!-- ref_dump_test.MapBase -->
<g id="node2" class="node">
<title>ref_dump_test.MapBase</title>
<ellipse fill="none" stroke="black" cx="202.23" cy="-18" rx="102.46" ry="18"/>
<text text-anchor="middle" x="202.23" y="-12.57" font-family="Times New Roman,serif" font-size="14.00">ref_dump_test.MapBase</text>
</g>
<!-- struct { F uintptr; R *ref_dump_test.MapBase }
(&lt;autogenerated&gt;:1)&#45;&gt;ref_dump_test.MapBase -->
<g id="edge1" class="edge">
<title>struct { F uintptr; R *ref_dump_test.MapBase }
(&lt;autogenerated&gt;:1)&#45;&gt;ref_dump_test.MapBase</title>
<path fill="none" stroke="#167496" d="M202.23,-71.87C202.23,-64.05 202.23,-55.49 202.23,-47.58"/>
<polygon fill="#167496" stroke="#167496" points="205.73,-47.77 202.23,-37.77 198.73,-47.77 205.73,-47.77"/>
</g>
<!-- []func() -->
<g id="node3" class="node">
<title>[]func()</title>
<ellipse fill="none" stroke="black" cx="202.23" cy="-181.86" rx="39.09" ry="18"/>
<text text-anchor="middle" x="202.23" y="-176.44" font-family="Times New Roman,serif" font-size="14.00">[]func()</text>
</g>
<!-- []func()&#45;&gt;struct { F uintptr; R *ref_dump_test.MapBase }
(&lt;autogenerated&gt;:1) -->
<g id="edge2" class="edge">
<title>[]func()&#45;&gt;struct { F uintptr; R *ref_dump_test.MapBase }
(&lt;autogenerated&gt;:1)</title>
<path fill="none" stroke="#ad7e2c" d="M202.23,-163.52C202.23,-156.45 202.23,-147.97 202.23,-139.57"/>
<polygon fill="#ad7e2c" stroke="#ad7e2c" points="205.73,-139.81 202.23,-129.81 198.73,-139.81 205.73,-139.81"/>
</g>
<!-- ref_dump_test.Info -->
<g id="node4" class="node">
<title>ref_dump_test.Info</title>
<ellipse fill="none" stroke="black" cx="202.23" cy="-253.86" rx="83" ry="18"/>
<text text-anchor="middle" x="202.23" y="-248.44" font-family="Times New Roman,serif" font-size="14.00">ref_dump_test.Info</text>
</g>
<!-- ref_dump_test.Info&#45;&gt;[]func() -->
<g id="edge3" class="edge">
<title>ref_dump_test.Info&#45;&gt;[]func()</title>
<path fill="none" stroke="#c8607a" d="M202.23,-235.56C202.23,-228.27 202.23,-219.59 202.23,-211.4"/>
<polygon fill="#c8607a" stroke="#c8607a" points="205.73,-211.48 202.23,-201.48 198.73,-211.48 205.73,-211.48"/>
</g>
<!-- #GlobalBssSection -->
<g id="node5" class="node">
<title>#GlobalBssSection</title>
<ellipse fill="red" stroke="#c9f3ab" cx="202.23" cy="-325.86" rx="82.5" ry="18"/>
<text text-anchor="middle" x="202.23" y="-320.44" font-family="Times New Roman,serif" font-size="14.00">#GlobalBssSection</text>
</g>
<!-- #GlobalBssSection&#45;&gt;ref_dump_test.Info -->
<g id="edge4" class="edge">
<title>#GlobalBssSection&#45;&gt;ref_dump_test.Info</title>
<path fill="none" stroke="black" d="M202.23,-307.56C202.23,-300.27 202.23,-291.59 202.23,-283.4"/>
<polygon fill="black" stroke="black" points="205.73,-283.48 202.23,-273.48 198.73,-283.48 205.73,-283.48"/>
</g>
</g>
</svg>
